<?xml version="1.0" encoding="utf-8"?>
<svg xmlns="http://www.w3.org/2000/svg" width="40" height="40" viewBox="0 0 40 40">
  <g id="Group_1507" data-name="Group 1507" opacity="0.396">
    <path id="Path_19809" data-name="Path 19809" d="M40.9,21.818a.909.909,0,1,1,.9-.909.906.906,0,0,1-.9.909Z" transform="translate(-40 -20)"/>
    <path id="Path_19810" data-name="Path 19810" d="M40.9,41.718a.909.909,0,1,1,.9-.909.906.906,0,0,1-.9.909Z" transform="translate(-40 -30.378)"/>
    <path id="Path_19811" data-name="Path 19811" d="M40.9,61.618a.909.909,0,1,1,.9-.909.878.878,0,0,1-.9.909Z" transform="translate(-40 -40.757)"/>
    <path id="Path_19812" data-name="Path 19812" d="M40.9,81.718a.909.909,0,1,1,.9-.909.878.878,0,0,1-.9.909Z" transform="translate(-40 -51.24)"/>
    <path id="Path_19813" data-name="Path 19813" d="M40.9,101.618a.909.909,0,1,1,.9-.909.878.878,0,0,1-.9.909Z" transform="translate(-40 -61.618)"/>
    <path id="Path_19814" data-name="Path 19814" d="M60.9,21.818a.909.909,0,1,1,.9-.909.906.906,0,0,1-.9.909Z" transform="translate(-50.476 -20)"/>
    <path id="Path_19815" data-name="Path 19815" d="M60.9,41.718a.909.909,0,1,1,.9-.909.906.906,0,0,1-.9.909Z" transform="translate(-50.476 -30.378)"/>
    <path id="Path_19816" data-name="Path 19816" d="M60.9,61.618a.909.909,0,1,1,.9-.909.878.878,0,0,1-.9.909Z" transform="translate(-50.476 -40.757)"/>
    <path id="Path_19817" data-name="Path 19817" d="M60.9,81.718a.909.909,0,1,1,.9-.909.878.878,0,0,1-.9.909Z" transform="translate(-50.476 -51.24)"/>
    <path id="Path_19818" data-name="Path 19818" d="M60.9,101.618a.909.909,0,1,1,.9-.909.878.878,0,0,1-.9.909Z" transform="translate(-50.476 -61.618)"/>
    <path id="Path_19819" data-name="Path 19819" d="M81.1,21.818a.909.909,0,1,1,.9-.909.939.939,0,0,1-.9.909Z" transform="translate(-61.057 -20)"/>
    <path id="Path_19820" data-name="Path 19820" d="M81.1,41.718a.909.909,0,1,1,.9-.909.939.939,0,0,1-.9.909Z" transform="translate(-61.057 -30.378)"/>
    <path id="Path_19821" data-name="Path 19821" d="M81.1,61.618a.909.909,0,1,1,.9-.909.906.906,0,0,1-.9.909Z" transform="translate(-61.057 -40.757)"/>
    <path id="Path_19822" data-name="Path 19822" d="M81.1,81.718a.909.909,0,1,1,.9-.909.906.906,0,0,1-.9.909Z" transform="translate(-61.057 -51.24)"/>
    <path id="Path_19823" data-name="Path 19823" d="M81.1,101.618a.909.909,0,1,1,.9-.909.906.906,0,0,1-.9.909Z" transform="translate(-61.057 -61.618)"/>
    <path id="Path_19824" data-name="Path 19824" d="M101.1,21.818a.909.909,0,1,1,.9-.909.939.939,0,0,1-.9.909Z" transform="translate(-71.533 -20)"/>
    <path id="Path_19825" data-name="Path 19825" d="M101.1,41.718a.909.909,0,1,1,.9-.909.939.939,0,0,1-.9.909Z" transform="translate(-71.533 -30.378)"/>
    <path id="Path_19826" data-name="Path 19826" d="M101.1,61.618a.909.909,0,1,1,.9-.909.906.906,0,0,1-.9.909Z" transform="translate(-71.533 -40.757)"/>
    <path id="Path_19827" data-name="Path 19827" d="M101.1,81.718a.909.909,0,1,1,.9-.909.906.906,0,0,1-.9.909Z" transform="translate(-71.533 -51.24)"/>
    <path id="Path_19828" data-name="Path 19828" d="M101.1,101.618a.909.909,0,1,1,.9-.909.906.906,0,0,1-.9.909Z" transform="translate(-71.533 -61.618)"/>
    <path id="Path_19829" data-name="Path 19829" d="M121.1,21.818a.909.909,0,1,1,.9-.909.939.939,0,0,1-.9.909Z" transform="translate(-82.01 -20)"/>
    <path id="Path_19830" data-name="Path 19830" d="M121.1,41.718a.909.909,0,1,1,.9-.909.939.939,0,0,1-.9.909Z" transform="translate(-82.01 -30.378)"/>
    <path id="Path_19831" data-name="Path 19831" d="M121.1,61.618a.909.909,0,1,1,.9-.909.906.906,0,0,1-.9.909Z" transform="translate(-82.01 -40.757)"/>
    <path id="Path_19832" data-name="Path 19832" d="M121.1,81.718a.909.909,0,1,1,.9-.909.906.906,0,0,1-.9.909Z" transform="translate(-82.01 -51.24)"/>
    <path id="Path_19833" data-name="Path 19833" d="M121.1,101.618a.909.909,0,1,1,.9-.909.906.906,0,0,1-.9.909Z" transform="translate(-82.01 -61.618)"/>
  </g>
</svg>
