<?xml version="1.0" encoding="utf-8"?>
<!-- Generator: Adobe Illustrator 22.0.1, SVG Export Plug-In . SVG Version: 6.00 Build 0)  -->
<svg version="1.1" id="Layer_1" xmlns="http://www.w3.org/2000/svg" xmlns:xlink="http://www.w3.org/1999/xlink" x="0px" y="0px"
	 viewBox="0 0 47.7 84.9" style="enable-background:new 0 0 47.7 84.9;" xml:space="preserve">
<g>
	<path d="M23.9,84.9c-1.6,0-3.2-0.6-4.5-1.7L2.2,67.6c-1.4-1.3-2.2-3-2.2-4.9V7c0-3.9,3.1-7,7-7h24.1c4,0,7.2,3.2,7.2,7.2v50.3
		c0,1.6-0.6,3.1-1.8,4.3l-8.3,8.3c-1.1,1.1-2.6,1.8-4.3,1.8c-1.6,0-3.1-0.6-4.3-1.8l-8.4-8.4c-1.1-1.1-1.8-2.7-1.8-4.3l0.3-43.2
		c0-3.2,2.7-5.8,5.9-5.8h15.8c1.1,0,2,0.9,2,2s-0.9,2-2,2H15.7c-1,0-1.9,0.8-1.9,1.9l-0.3,43.2c0,0.5,0.2,1.1,0.6,1.5l8.4,8.4
		c0.4,0.4,0.9,0.6,1.4,0.6s1-0.2,1.4-0.6l8.3-8.3c0.4-0.4,0.6-0.9,0.6-1.4V7.2c0-1.8-1.5-3.2-3.2-3.2H7C5.3,4,4,5.3,4,7v55.6
		c0,0.7,0.3,1.5,0.9,2l17.2,15.6c0.5,0.4,1.1,0.7,1.8,0.7c0.7,0,1.3-0.2,1.8-0.7l17.2-15.6c0.5-0.5,0.9-1.2,0.9-2V15
		c0-1.7-1.3-3-3-3c-1.1,0-2-0.9-2-2s0.9-2,2-2c3.9,0,7,3.1,7,7v47.6c0,1.9-0.8,3.7-2.2,4.9L28.3,83.2C27.1,84.3,25.5,84.9,23.9,84.9
		z"/>
</g>
</svg>
