<?xml version="1.0" encoding="utf-8"?><svg xmlns="http://www.w3.org/2000/svg" width="23.857" height="23.857" viewBox="0 0 23.857 23.857">
  <g id="play-button" transform="translate(0.5 0.5)">
    <path id="Path_948" data-name="Path 948" d="M21.592,6.2a11.53,11.53,0,0,0-3.375-3.964.465.465,0,0,0-.553.748,10.6,10.6,0,0,1,3.1,3.642,10.383,10.383,0,0,1,1.161,4.8A10.5,10.5,0,1,1,11.429.93a.465.465,0,0,0,0-.93A11.422,11.422,0,1,0,21.592,6.2Z" transform="translate(0 0)" fill="#fff" stroke="#fff" stroke-width="1"/>
    <path id="Path_949" data-name="Path 949" d="M106.9,78.246a.466.466,0,0,0-.236.4V88.869a.466.466,0,0,0,.931,0v-9.4l6.893,4.1-5.069,3.266a.466.466,0,1,0,.5.783l5.7-3.673a.466.466,0,0,0-.014-.791l-8.243-4.907A.466.466,0,0,0,106.9,78.246Z" transform="translate(-98.401 -72.13)" fill="#fff" stroke="#fff" stroke-width="1"/>
  </g>
</svg>
