<?xml version="1.0" encoding="utf-8"?><svg id="Page-2" xmlns="http://www.w3.org/2000/svg" width="36.545" height="30" viewBox="0 0 36.545 30">
  <g id="Home-Page-Test">
    <path id="_x201C_" d="M151.036,1847.236V1863H135v-10.2a25.4,25.4,0,0,1,2.073-10.309,32.619,32.619,0,0,1,6.873-9.491l5.782,4.582c-3.273,3.327-5.291,6.546-6,9.6h7.309Zm20.509,0V1863H155.509v-10.2a25.4,25.4,0,0,1,2.073-10.309,32.619,32.619,0,0,1,6.873-9.491l5.782,4.582c-3.273,3.327-5.291,6.546-6,9.6h7.309Z" transform="translate(-135 -1833)" fill="#fd5636"/>
  </g>
</svg>
