<?xml version="1.0" encoding="utf-8"?><svg xmlns="http://www.w3.org/2000/svg" width="18" height="10.689" viewBox="0 0 18 10.689">
  <g id="Group_481" data-name="Group 481" transform="translate(0 -17.112)">
    <path id="Path_10268" data-name="Path 10268" d="M17.155,230.709H.844a.844.844,0,0,1,0-1.687H17.155a.844.844,0,0,1,0,1.687Z" transform="translate(0 -207.409)"/>
    <path id="Path_10269" data-name="Path 10269" d="M224.543,154.455a.844.844,0,0,1-.6-1.441l3.9-3.9-3.9-3.9a.844.844,0,1,1,1.194-1.194l4.5,4.5a.844.844,0,0,1,0,1.193l-4.5,4.5A.837.837,0,0,1,224.543,154.455Z" transform="translate(-211.887 -126.655)"/>
  </g>
</svg>
